<svg xmlns="http://www.w3.org/2000/svg" viewBox="0 0 60 25" fill="#635bff">
  <path d="M5 10.2c0-.7.6-1 1.5-1 1.4 0 3.1.4 4.5 1.2V6.3c-1.5-.6-3-1-4.5-1C3.3 5.3 1 7 1 9.9c0 4.6 6.3 3.9 6.3 5.9 0 .8-.7 1.1-1.7 1.1-1.4 0-3.4-.6-4.9-1.4v4.2c1.7.7 3.3 1 4.9 1 3.3 0 5.6-1.6 5.6-4.5 0-5-6.2-4.1-6.2-6zm14.5-2.3h-2.7V5.1l-3.3.7v2.2H12v2.9h1.5v5.7c0 2.9 1.4 4.1 4 4.1 1.2 0 2.3-.2 2.8-.5v-2.9c-.4.2-1.3.4-1.8.4-1 0-1.7-.4-1.7-1.6V10.8h2.7v-2.9zm7.7-2.7l-3.3.7v2.1h3.3V5.2zm-3.3 2.7v12.4h3.3V7.9h-3.3zm8.7 1.2c0-.5.4-.7 1.1-.7.9 0 2.2.3 3.1.8V5.3c-1-.4-2-.6-3.1-.6-2.5 0-4.4 1.3-4.4 3.6 0 3.5 4.8 3 4.8 4.5 0 .5-.5.7-1.2.7-1 0-2.5-.4-3.5-1v3.9c1.2.5 2.4.7 3.5.7 2.6 0 4.4-1.3 4.4-3.6 0-3.8-4.7-3.1-4.7-4.4zm12.9-1.2c-1.1 0-1.9.5-2.3 1.3l-.2-1h-3v12.4h3.3v-8.5c.4-.9 1.2-1 1.7-1 .2 0 .4 0 .6.1V7.9h-.1zm4.3 0c-2.4 0-4.3 2.1-4.3 6.3 0 4.2 1.8 6.1 4.3 6.1s4.3-2.1 4.3-6.2c0-4.1-1.9-6.2-4.3-6.2zm0 2.9c1 0 1.1 1.4 1.1 3.2s-.1 3.3-1.1 3.3-1.1-1.4-1.1-3.3.1-3.2 1.1-3.2z"/>
</svg>
